<?xml version="1.0" standalone="no"?>
<!DOCTYPE svg PUBLIC "-//W3C//DTD SVG 20010904//EN"
 "http://www.w3.org/TR/2001/REC-SVG-20010904/DTD/svg10.dtd">
<svg version="1.0" xmlns="http://www.w3.org/2000/svg"
 width="800.000000pt" height="800.000000pt" viewBox="0 0 800.000000 800.000000"
 preserveAspectRatio="xMidYMid meet">
<metadata>
Created by potrace 1.14, written by Peter Selinger 2001-2017
</metadata>
<g transform="translate(0.000000,800.000000) scale(0.100000,-0.100000)"
fill="#000000" stroke="none">
<path d="M2218 7595 c-2 -1 -34 -6 -73 -9 -38 -4 -77 -9 -85 -11 -8 -2 -35 -6
-60 -9 -25 -3 -55 -8 -67 -11 -13 -3 -31 -7 -42 -9 -10 -2 -36 -9 -56 -15 -21
-6 -42 -8 -46 -5 -4 2 -10 0 -13 -5 -5 -7 -34 -16 -86 -25 -3 -1 -11 -5 -17
-9 -7 -5 -21 -10 -30 -12 -35 -7 -148 -50 -151 -57 -2 -5 -10 -8 -17 -8 -19 0
-88 -32 -97 -45 -4 -5 -8 -7 -8 -3 0 8 -161 -74 -202 -103 -14 -11 -29 -19
-32 -19 -9 0 -176 -118 -251 -178 -70 -56 -335 -318 -335 -331 0 -4 -14 -23
-31 -42 -17 -19 -52 -65 -77 -104 -26 -38 -50 -72 -53 -75 -26 -21 -176 -312
-219 -425 -12 -33 -26 -69 -31 -80 -12 -30 -68 -216 -73 -245 -2 -14 -9 -46
-15 -73 -6 -26 -14 -64 -17 -85 -3 -20 -7 -48 -10 -62 -15 -89 -19 -169 -18
-350 1 -113 4 -223 7 -245 3 -22 8 -62 12 -90 3 -27 16 -93 27 -145 11 -52 21
-99 22 -105 2 -5 8 -28 14 -50 6 -22 12 -43 12 -47 0 -5 9 -32 21 -60 11 -29
22 -60 24 -68 6 -29 94 -226 135 -305 42 -81 193 -313 227 -350 10 -11 31 -38
48 -60 39 -52 255 -266 331 -328 102 -83 304 -213 429 -276 100 -50 281 -127
320 -136 6 -1 17 -5 25 -8 31 -12 158 -46 230 -62 100 -21 108 -22 160 -30 85
-12 125 -15 215 -20 50 -3 107 -6 128 -8 20 -1 37 0 37 3 0 3 33 5 73 5 39 0
97 3 127 6 30 4 78 10 105 14 28 3 54 10 58 14 9 9 12 95 3 109 -3 6 -2 13 3
16 5 4 6 19 3 34 -4 15 -6 41 -5 57 6 60 5 124 -2 134 -3 6 -1 11 5 11 6 0 8
5 5 11 -7 10 -7 29 -4 161 1 25 -2 51 -5 57 -4 5 -2 12 3 15 6 4 6 18 1 35 -4
15 -4 34 0 41 4 7 4 26 0 41 -5 16 -5 31 0 34 5 3 5 18 1 33 -5 15 -5 36 -1
47 4 11 4 32 -1 47 -4 15 -4 30 1 33 5 3 5 18 1 33 -4 15 -5 38 -1 52 4 14 3
37 -1 52 -4 15 -4 30 1 33 5 3 5 18 2 33 -4 15 -6 41 -5 57 6 60 5 124 -2 134
-3 6 -1 11 5 11 6 0 8 5 5 11 -4 6 -7 33 -6 60 1 27 1 73 1 102 0 28 -1 58 -1
65 1 6 1 24 0 40 0 73 2 71 -44 46 -198 -106 -502 -107 -700 -4 -117 61 -136
75 -214 150 -92 90 -163 204 -201 325 -27 85 -34 129 -34 217 -1 38 -5 68 -9
68 -5 0 -5 5 -2 10 4 6 8 23 10 38 10 74 24 133 44 187 11 31 74 159 81 165 3
3 19 23 35 45 57 76 192 195 221 195 8 0 14 4 14 9 0 10 127 65 190 82 65 18
67 18 154 24 44 4 82 6 85 7 3 0 8 -1 11 -2 3 -1 23 -3 45 -5 172 -13 368
-111 492 -244 24 -25 49 -53 58 -62 8 -9 15 -21 15 -27 0 -5 4 -12 8 -14 17
-6 81 -134 102 -203 26 -82 34 -130 35 -202 0 -29 2 -53 5 -53 3 0 4 -21 3
-47 -1 -27 -2 -60 -2 -75 -1 -16 -1 -40 -2 -55 0 -16 0 -35 0 -43 1 -8 1 -26
0 -40 0 -14 0 -31 0 -37 2 -23 2 -37 0 -98 -1 -33 0 -64 1 -70 1 -5 1 -14 0
-20 -4 -24 -2 -204 3 -212 3 -5 2 -15 -3 -22 -4 -8 -4 -27 0 -42 5 -16 6 -29
2 -29 -8 0 -7 -134 1 -147 3 -5 2 -15 -3 -22 -4 -8 -4 -27 0 -42 5 -16 6 -29
2 -29 -8 0 -7 -134 1 -147 3 -5 2 -15 -3 -22 -4 -8 -4 -27 0 -42 5 -16 6 -29
2 -29 -4 0 -6 -33 -4 -72 1 -40 2 -80 2 -88 0 -8 0 -26 1 -40 0 -14 0 -32 0
-40 -1 -8 -1 -24 -1 -35 1 -11 1 -27 0 -35 -1 -28 0 -65 4 -85 2 -11 0 -32 -4
-46 -4 -15 -4 -32 0 -39 4 -7 4 -25 0 -40 -4 -15 -4 -33 0 -40 4 -7 4 -25 0
-40 -4 -15 -4 -33 0 -40 4 -7 4 -24 1 -39 -4 -14 -4 -41 0 -59 4 -17 3 -34 -1
-37 -4 -3 -4 -20 0 -39 4 -19 5 -37 3 -40 -7 -7 -9 -306 -3 -306 3 0 5 -35 6
-78 1 -93 17 -244 31 -302 6 -24 8 -36 17 -90 3 -14 12 -52 21 -84 8 -33 17
-67 19 -75 2 -9 6 -23 9 -31 3 -8 22 -62 42 -120 50 -142 149 -342 236 -475
39 -61 75 -111 80 -113 5 -2 9 -10 9 -18 0 -8 7 -17 15 -20 8 -4 15 -11 15
-18 0 -6 8 -18 18 -27 9 -8 28 -31 42 -50 45 -63 275 -283 375 -360 130 -98
284 -193 415 -256 98 -47 134 -63 153 -68 4 -2 9 -4 12 -5 3 -1 8 -3 13 -4 4
-1 12 -4 17 -8 24 -15 233 -80 295 -92 14 -2 48 -10 75 -16 54 -13 140 -26
245 -38 85 -9 408 -9 485 0 140 17 161 21 179 30 10 6 16 6 13 1 -3 -5 36 2
86 15 51 13 101 25 112 28 12 2 46 12 78 23 31 11 57 18 57 15 0 -2 10 2 23
10 12 7 36 17 52 21 74 17 336 151 475 242 267 177 509 418 676 673 27 41 51
77 54 80 19 19 143 269 176 355 17 44 35 89 39 100 4 11 9 25 10 30 2 6 14 48
28 95 15 47 28 96 31 110 2 14 9 44 14 68 5 23 8 42 6 42 -3 0 0 9 6 19 7 13
7 22 0 26 -13 8 -90 12 -90 5 0 -3 -20 -5 -45 -5 -25 0 -45 2 -45 5 0 6 -89 3
-106 -4 -6 -2 -17 0 -24 4 -8 5 -22 4 -31 -1 -11 -6 -20 -5 -24 1 -4 7 -12 7
-24 0 -10 -5 -21 -6 -25 -2 -8 8 -224 5 -237 -4 -5 -3 -9 -1 -9 5 0 6 -11 6
-30 1 -16 -5 -30 -6 -30 -2 0 8 -53 8 -66 -1 -6 -3 -16 -2 -24 3 -8 5 -21 5
-30 0 -9 -5 -22 -5 -28 -1 -7 4 -33 5 -57 1 -25 -4 -47 -5 -50 -2 -6 7 -65 8
-65 2 0 -3 -18 -5 -40 -5 -22 0 -40 2 -40 5 0 7 -66 4 -77 -3 -5 -3 -15 -2
-22 3 -8 4 -26 4 -42 0 -15 -5 -30 -6 -33 -2 -7 7 -66 9 -66 2 0 -3 -18 -5
-40 -5 -22 0 -40 2 -40 5 0 7 -66 4 -77 -3 -5 -3 -15 -2 -22 2 -7 5 -28 5 -47
1 -19 -4 -34 -5 -34 -1 0 4 -13 6 -30 3 -16 -2 -28 -8 -25 -12 3 -5 0 -14 -7
-22 -7 -7 -26 -31 -43 -53 -40 -54 -127 -137 -178 -171 -23 -15 -53 -35 -67
-44 -14 -9 -43 -23 -65 -31 -22 -8 -43 -18 -47 -24 -4 -5 -8 -7 -8 -3 0 3 -21
-1 -47 -9 -63 -19 -107 -27 -170 -27 -29 -1 -53 -5 -53 -9 0 -5 -5 -5 -11 -1
-6 3 -34 8 -63 10 -28 2 -62 6 -76 9 -14 3 -34 8 -45 10 -35 5 -134 43 -178
67 -204 111 -347 298 -406 530 -12 48 -17 102 -15 185 2 156 12 202 74 338 49
110 163 245 261 309 24 16 55 37 69 46 14 9 41 22 60 29 19 7 44 17 55 22 86
38 292 57 406 37 120 -20 243 -72 339 -142 63 -45 180 -165 180 -183 0 -7 4
-13 8 -13 5 0 14 -10 19 -23 6 -13 17 -24 25 -25 11 -1 80 -2 171 -2 9 0 23 0
30 -1 15 0 75 0 102 1 11 1 26 1 33 1 23 -2 37 -2 87 -1 28 0 68 -1 91 -2 22
-1 44 1 50 4 5 3 18 2 29 -2 11 -4 32 -4 48 1 15 4 27 5 27 1 0 -8 62 -8 76 0
5 3 18 2 29 -2 11 -4 32 -4 48 1 15 4 27 5 27 1 0 -6 65 -7 80 -2 3 2 10 1 15
0 21 -5 173 -2 182 3 5 3 15 2 22 -3 8 -4 25 -4 40 0 14 4 35 4 46 0 11 -4 29
-4 41 0 11 5 26 5 34 0 7 -4 24 -5 38 -1 14 4 45 4 69 1 24 -4 43 -3 43 2 0 5
5 6 11 3 14 -9 123 -10 137 -1 6 3 13 2 17 -4 4 -7 12 -7 24 0 17 9 18 14 5
67 -15 62 -25 109 -29 133 -1 8 -5 22 -7 30 -3 8 -18 53 -32 100 -15 47 -30
92 -33 100 -4 8 -7 17 -8 20 -1 3 -9 22 -18 44 -9 21 -17 40 -17 43 0 11 -98
204 -137 271 -24 41 -43 75 -43 78 0 2 -7 12 -15 21 -8 10 -40 55 -72 99 -89
124 -119 159 -243 284 -151 152 -331 293 -487 381 -122 69 -306 158 -337 163
-6 1 -16 5 -22 8 -25 16 -271 90 -344 104 -185 35 -246 43 -377 48 -45 2 -85
6 -90 9 -4 2 -17 1 -28 -3 -11 -4 -30 -4 -41 1 -12 4 -24 5 -27 2 -3 -3 -45
-7 -94 -8 -49 -2 -104 -7 -123 -10 -19 -3 -51 -8 -70 -10 -67 -7 -236 -41
-252 -51 -5 -3 -19 -7 -31 -9 -12 -1 -53 -12 -91 -24 -37 -11 -72 -21 -76 -21
-5 0 -8 22 -7 50 0 27 -2 53 -6 56 -3 3 -2 16 3 29 5 13 7 25 4 28 -3 3 -7 47
-10 98 -2 52 -6 108 -8 124 -3 17 -8 59 -11 95 -4 36 -9 68 -12 72 -5 9 -11
38 -19 88 -12 83 -85 311 -136 430 -11 25 -42 90 -70 145 -28 55 -56 110 -62
122 -6 13 -14 23 -18 23 -5 0 -8 5 -8 10 0 20 -145 225 -230 325 -29 34 -212
217 -256 256 -122 108 -348 256 -505 332 -86 41 -237 105 -264 112 -5 1 -17 5
-25 8 -52 20 -237 69 -305 81 -16 3 -39 8 -50 10 -22 4 -99 16 -155 23 -40 5
-437 12 -442 8z"/>
</g>
</svg>
